<?xml version="1.0" encoding="UTF-8" standalone="no"?>
<!-- Created with Inkscape (http://www.inkscape.org/) -->

<svg
   version="1.1"
   id="svg410"
   width="1706.6667"
   height="600"
   viewBox="0 0 1706.6667 600"
   sodipodi:docname="sammelsurium.svg"
   inkscape:version="1.1 (c4e8f9ed74, 2021-05-24)"
   xmlns:inkscape="http://www.inkscape.org/namespaces/inkscape"
   xmlns:sodipodi="http://sodipodi.sourceforge.net/DTD/sodipodi-0.dtd"
   xmlns="http://www.w3.org/2000/svg"
   xmlns:svg="http://www.w3.org/2000/svg">
  <defs
     id="defs414" />
  <sodipodi:namedview
     id="namedview412"
     pagecolor="#ffffff"
     bordercolor="#666666"
     borderopacity="1.0"
     inkscape:pageshadow="2"
     inkscape:pageopacity="0.0"
     inkscape:pagecheckerboard="0"
     showgrid="false"
     height="600px"
     inkscape:zoom="0.30949731"
     inkscape:cx="909.53941"
     inkscape:cy="793.22176"
     inkscape:window-width="1920"
     inkscape:window-height="1080"
     inkscape:window-x="1920"
     inkscape:window-y="0"
     inkscape:window-maximized="1"
     inkscape:current-layer="g416" />
  <g
     inkscape:groupmode="layer"
     inkscape:label="Image"
     id="g416">
    <path
       style="fill:#000000;stroke-width:3.79526"
       d="m 1647.6442,545.90508 c -10.1591,-64.1503 30.4147,-123.00382 22.7214,-186.34203 -32.7389,-65.0585 -91.271,25.26614 -72.8724,69.86978 3.7075,24.15542 -8.6126,97.56223 -14.5121,33.3052 -4.2467,-25.9733 7.3521,-139.98813 -36.0062,-96.87604 -29.3162,37.55967 13.967,105.10799 -7.9402,128.52078 -20.3231,-50.79241 -36.0714,-148.36745 29.2986,-169.72854 27.9376,54.81633 45.0901,-38.18059 86.9808,-12.81027 51.3956,34.48216 26.6138,108.39545 16.3748,158.51383 -11.219,11.38241 -11.8746,136.08642 -24.0447,75.54729 z m -690.33704,-2.6902 c -54.63614,-13.63331 -38.2961,-132.65662 -26.56776,-130.72771 -6.59905,42.17763 0.70747,150.7421 65.70889,107.17943 27.52891,-52.69338 32.07481,-116.4178 26.68951,-174.96156 -7.6262,-85.41071 -118.83107,53.68446 -126.85744,-46.46529 -5.35077,-73.56005 29.51314,-165.2973 106.59234,-186.47083 54.5833,-2.99068 17.631,128.39014 18.2978,51.68881 -0.4115,-91.287672 -101.9055,14.10618 -106.37276,57.21652 -19.81058,45.60215 -3.6308,141.38238 60.82932,85.12304 38.30894,-37.44932 57.70284,26.72296 66.13064,40.13953 14.1917,-55.26283 -0.1381,-120.46368 28.2295,-170.1168 15.4384,56.69152 -18.3595,127.24058 -11.6116,189.73015 -9.2266,44.81838 32.9016,166.79793 68.52,74.00753 31.8579,-93.40296 25.1586,-193.53776 31.3349,-290.65888 15.8492,46.3974 6.8314,110.67551 5.0638,163.73925 -7.772,57.2464 -8.2016,120.73775 -41.4967,169.97668 -53.8384,50.16663 -68.2487,-64.02566 -78.5909,-84.23957 -4.2701,49.0002 -15.1743,157.84159 -85.89954,144.8397 z m 532.10804,-21.74667 c -16.634,-65.65543 -41.6296,14.09863 -75.6572,-7.07561 -36.4533,-55.89687 -28.369,-129.79754 -13.8606,-191.84084 39.942,-28.91857 -5.3162,63.88288 2.5311,85.00509 -12.4621,31.97401 22.7814,137.14754 48.8824,64.5896 27.4867,-43.90686 6.3929,-117.00059 40.7347,-148.08749 0.4893,60.18049 -21.1139,125.52236 7.1695,182.03389 12.1216,-2.05499 36.2646,10.80609 5.8785,25.34635 l -7.4755,-2.75489 -8.2029,-7.21621 z M 51.163847,517.34073 C -8.8046451,482.24897 24.706451,408.04772 31.453232,354.75018 58.186292,366.73467 6.3600459,467.09194 56.654322,495.51252 121.10209,538.2445 173.53861,457.8577 179.75677,400.4149 181.97937,351.24189 203.04376,231.24008 117.71687,264.7509 46.440506,284.48298 12.221699,194.4011 46.162036,141.60133 67.189822,84.316538 115.93736,9.110618 186.84769,27.126928 236.02238,43.035048 251.12692,139.03984 212.12999,162.17626 225.81068,113.3247 211.09058,19.991448 140.16392,46.858378 82.315142,80.597898 49.681159,156.7369 62.382842,222.08449 c 27.78056,53.20717 127.613968,-25.15603 135.029358,60.65629 16.04111,80.84585 0.50717,177.61064 -63.92272,234.28331 -23.59213,15.86604 -58.302648,14.84578 -82.325633,0.31664 z M 679.0968,424.90488 c 4.29575,-42.28107 9.98004,-169.15761 -56.1557,-92.9291 -12.77513,41.76404 6.19759,101.46241 -12.17008,134.76705 -22.3484,-41.35456 7.96285,-140.25397 -41.66082,-148.73529 -20.01799,39.7401 3.32603,125.55837 -17.27369,142.18152 -0.74919,-55.36754 -29.27386,-148.57031 31.93281,-176.78995 26.08435,4.031 28.24797,56.42545 50.01792,12.22009 60.85073,-43.5042 64.33163,63.41187 57.79933,102.05601 -2.47616,21.72848 1.37706,120.08756 -13.13033,100.70858 -0.66596,-24.48964 0.25931,-48.99282 0.64056,-73.47891 z m 75.86948,76.67298 c -46.02707,-47.879 -33.49803,-124.50031 -15.37094,-182.15427 13.20394,-58.29362 103.86601,-52.90385 66.79936,14.04965 -14.77691,57.66779 -107.59527,75.02815 -53.05229,141.57008 41.72579,42.44295 42.21151,-125.90479 49.21271,-36.63477 -2.59921,23.15828 -13.52718,77.02375 -47.58884,63.16931 z m 6.4977,-126.38569 c 26.54273,-12.3315 64.96058,-112.34327 7.89008,-72.56856 -20.14693,7.30671 -55.79938,126.88408 -7.89008,72.56856 z M 505.9056,494.9013 c -1.63842,-62.0849 10.92344,-124.25452 5.83508,-186.2277 -42.21427,-56.49943 -65.60977,58.16231 -58.42751,93.56456 2.7,24.4652 -11.4652,62.12785 -12.77765,15.20141 -8.69253,-24.47266 13.36971,-126.22117 -23.36431,-96.37947 -24.54495,40.63073 8.4958,101.1355 -16.52811,133.48174 -8.027,-53.98883 -20.78695,-114.86293 12.09946,-162.79465 29.33556,15.50225 47.78166,15.7469 65.70397,-17.77978 35.4629,-12.58953 58.31831,54.66022 46.4308,85.51771 -8.40029,38.95701 -0.96507,113.35811 -18.97173,135.41618 z m 338.7447,-13.43846 c -25.57777,-121.77095 -0.4863,-246.93962 7.85735,-369.5233 22.1097,-67.665202 3.00039,79.78663 2.62303,104.48569 -3.43532,84.99593 -16.00755,172.04838 1.5096,255.96696 17.27195,19.8684 63.03165,-57.91002 37.759,0.06 -9.57127,16.88885 -41.85642,41.0737 -49.74898,9.01047 z m 347.7368,-23.71811 c 7.5244,-55.16588 -20.0529,-138.61572 43.4184,-168.5968 59.596,-16.19316 86.2801,112.46077 25.8516,112.97031 -4.1193,-29.27024 25.0627,-129.59718 -34.1605,-84.63502 -30.8681,54.59869 -15.7334,119.31874 -25.0896,177.81052 -12.2392,7.98739 -6.9444,-29.94388 -10.0199,-37.54901 z m 144.8879,25.83106 c -32.5326,-53.55895 -13.9438,-123.2896 -7.2047,-182.3353 36.2994,-49.46636 -1.2527,78.45864 6.4878,102.36337 -5.2791,38.22221 7.8247,62.29545 20.1262,72.50218 4.4662,15.265 -10.7717,22.35501 -19.4093,7.46975 z M 254.10043,467.42584 c -48.62448,-43.93767 -17.25555,-132.53277 12.46027,-181.58678 28.48855,-43.34981 109.57749,-59.08183 131.32521,-9.4676 -28.25026,55.5449 -23.07419,122.5571 -29.95263,176.53091 32.4671,32.07926 -37.94293,15.97237 -27.00793,-23.46954 -24.92404,20.68237 -51.07364,46.85547 -86.82492,37.99301 z m 27.16025,-21.24872 c 52.2681,-33.67575 73.81457,-97.29588 95.14045,-152.6795 -9.65398,-69.78408 -109.9142,-3.58007 -115.71258,43.94494 -11.8729,28.89449 -47.58786,133.57179 20.57213,108.73456 z m 96.91043,7.60873 c 3.6911,-13.45731 2.35971,16.47443 0,0 z M 1338.9219,219.13657 c -3.8731,-97.85201 67.0503,42.91808 0,0 z m 14.335,-21.21543 c -5.6658,-11.99375 -8.5655,13.03473 0,0 z"
       id="path500" />
  </g>
</svg>
