<?xml version="1.0" standalone="no"?>
<!DOCTYPE svg PUBLIC "-//W3C//DTD SVG 20010904//EN"
 "http://www.w3.org/TR/2001/REC-SVG-20010904/DTD/svg10.dtd">
<svg version="1.0" xmlns="http://www.w3.org/2000/svg"
 width="1707.000000pt" height="1707.000000pt" viewBox="0 0 1707.000000 1707.000000"
 preserveAspectRatio="xMidYMid meet">
<metadata>
Created by potrace 1.14, written by Peter Selinger 2001-2017
</metadata>
<g transform="translate(0.000000,1707.000000) scale(0.100000,-0.100000)"
fill="#000000" stroke="none">
<path d="M11277 16213 c-7 -26 -18 -74 -23 -100 -9 -52 -14 -75 -48 -226 -33
-146 -158 -642 -206 -817 -60 -221 -196 -757 -205 -807 -2 -16 -7 -46 -10 -68
-5 -32 -32 -176 -50 -266 -17 -86 -50 -232 -70 -309 -13 -52 -26 -106 -28
-120 -3 -14 -33 -129 -67 -255 -34 -127 -64 -239 -66 -249 -2 -11 -10 -40 -18
-65 -8 -25 -31 -109 -51 -186 -21 -77 -48 -178 -60 -225 -32 -117 -118 -473
-129 -535 -3 -14 -7 -33 -10 -43 -3 -9 -7 -33 -10 -52 -3 -19 -13 -71 -21
-115 -9 -44 -18 -96 -21 -115 -2 -19 -6 -42 -9 -50 -2 -8 -7 -42 -10 -75 -4
-33 -8 -67 -10 -75 -3 -8 -7 -42 -10 -75 -3 -33 -8 -76 -10 -95 -5 -39 -15
-171 -20 -270 -2 -36 -17 -139 -33 -230 -26 -139 -108 -631 -128 -765 -4 -22
-8 -47 -9 -55 -5 -28 -15 -95 -20 -140 -3 -25 -10 -70 -15 -100 -5 -30 -12
-80 -15 -110 -4 -30 -8 -57 -10 -60 -2 -3 -6 -34 -10 -70 -4 -36 -9 -72 -10
-81 -2 -9 -6 -40 -10 -70 -3 -30 -8 -61 -10 -69 -2 -8 -7 -40 -10 -70 -9 -83
-15 -132 -20 -160 -2 -14 -7 -53 -10 -87 -3 -34 -8 -71 -10 -82 -2 -11 -6 -48
-10 -83 -3 -35 -8 -74 -10 -88 -2 -14 -7 -50 -10 -80 -3 -30 -8 -66 -10 -80
-2 -14 -7 -54 -10 -90 -4 -36 -9 -72 -10 -80 -1 -8 -6 -46 -9 -85 -6 -66 -21
-195 -31 -275 -6 -47 -16 -145 -21 -200 -2 -25 -6 -65 -8 -90 -3 -25 -8 -70
-11 -100 -3 -30 -8 -71 -10 -90 -3 -19 -7 -64 -10 -100 -3 -36 -7 -81 -10
-100 -5 -38 -13 -124 -20 -210 -5 -65 -18 -177 -30 -270 -3 -19 -7 -55 -10
-80 -4 -25 -8 -56 -10 -70 -11 -76 -26 -179 -30 -208 -2 -18 -6 -45 -9 -60 -3
-15 -8 -52 -12 -82 -3 -30 -7 -57 -9 -60 -1 -3 -6 -36 -10 -73 -3 -37 -8 -77
-10 -88 -2 -11 -7 -50 -11 -87 -3 -36 -7 -74 -9 -84 -17 -87 -25 -490 -12
-633 7 -78 23 -183 33 -217 8 -28 52 -22 84 12 41 44 49 95 49 310 -1 107 4
207 9 221 6 14 13 57 16 95 4 38 8 85 11 104 2 19 6 62 10 95 3 33 7 80 10
105 3 25 8 70 11 100 3 30 7 71 9 90 2 19 8 78 14 130 6 52 13 122 16 155 3
33 7 69 9 81 2 11 7 56 10 100 4 43 9 86 11 94 2 8 6 44 10 80 3 36 8 79 10
95 3 17 7 57 10 90 3 33 10 98 16 145 5 47 12 103 14 125 12 109 22 188 30
255 2 19 7 60 10 90 3 30 11 91 16 135 6 44 12 96 15 115 3 31 13 112 29 243
10 77 14 114 20 167 4 30 8 66 10 80 2 14 9 63 15 110 6 47 13 101 15 120 3
19 7 58 10 85 3 28 8 61 10 75 2 14 6 50 10 80 4 30 8 66 10 80 2 14 6 43 9
65 3 22 12 94 21 160 17 127 23 175 31 240 2 22 7 51 9 65 2 14 7 49 10 79 4
30 8 61 10 70 1 9 6 43 10 76 4 33 16 103 26 155 11 52 22 109 24 125 3 17 10
53 15 80 19 95 21 108 54 335 8 58 18 128 21 155 3 28 8 61 10 75 3 14 7 50
10 80 3 30 8 66 10 80 2 14 6 50 10 80 3 30 8 71 10 90 3 19 7 54 10 78 19
155 65 515 70 542 6 39 44 262 50 295 3 17 10 53 15 80 6 28 12 60 15 73 2 13
6 31 9 40 3 9 7 28 10 42 8 47 37 155 81 295 39 128 91 310 100 353 2 9 15 62
29 117 20 78 93 387 111 475 2 8 15 69 29 135 14 66 27 131 30 145 2 14 16 81
31 150 15 69 29 136 31 150 2 14 7 36 10 50 4 14 8 35 9 47 2 11 6 29 9 40 3
10 8 34 11 53 3 19 10 51 15 70 5 19 12 51 15 70 3 19 8 43 11 52 3 9 7 27 9
40 3 13 7 34 10 48 2 14 7 52 10 85 3 33 7 71 10 85 3 14 7 36 10 50 21 111
38 171 160 540 94 286 146 462 159 545 15 91 18 127 18 195 -1 76 -12 145 -33
196 -7 16 -13 31 -13 34 -1 3 -13 22 -28 43 -22 32 -27 36 -31 20z"/>
<path d="M11699 16056 c-20 -7 -52 -25 -72 -40 -145 -111 -279 -543 -291 -941
-5 -143 0 -164 39 -181 47 -19 109 -2 417 117 145 55 335 128 423 161 88 34
194 74 235 90 41 16 104 39 140 52 36 14 175 65 310 114 135 49 316 114 402
143 87 30 158 57 158 60 0 3 -28 22 -62 42 -61 36 -211 91 -280 102 -18 3 -44
8 -58 10 -58 12 -77 15 -120 20 -25 3 -61 7 -80 10 -19 2 -62 6 -95 10 -33 3
-80 7 -105 10 -25 2 -76 7 -115 10 -61 5 -162 19 -300 40 -115 18 -299 77
-334 107 -37 32 -107 67 -142 72 -19 2 -51 -2 -70 -8z m373 -261 c79 -14 199
-44 398 -98 121 -34 269 -67 310 -70 31 -2 25 -13 -27 -52 -100 -72 -264 -145
-733 -325 -140 -53 -309 -121 -374 -150 -77 -35 -134 -54 -160 -54 -40 -1 -41
0 -38 29 2 16 17 54 33 84 32 60 36 80 43 241 11 225 91 354 246 397 57 15
206 14 302 -2z"/>
<path d="M10690 14737 c-79 -39 -182 -118 -280 -217 -84 -84 -127 -143 -361
-495 -354 -531 -583 -883 -868 -1330 -85 -132 -168 -262 -186 -290 -87 -135
-451 -720 -615 -990 -53 -88 -166 -272 -250 -410 -405 -661 -740 -1320 -1002
-1974 -74 -185 -77 -194 -208 -601 -45 -140 -88 -274 -96 -298 -45 -136 -145
-509 -159 -592 -3 -19 -12 -64 -20 -100 -59 -279 -78 -687 -41 -875 2 -11 7
-45 12 -75 4 -30 8 -57 9 -60 1 -3 5 -21 9 -40 4 -19 21 -79 37 -133 l30 -98
72 -35 c84 -39 156 -56 248 -55 180 0 271 32 708 249 303 151 432 202 574 226
87 15 225 13 256 -3 23 -13 84 -111 101 -165 23 -73 -1 -138 -69 -180 -66 -42
-190 -74 -433 -110 -92 -14 -117 -18 -180 -32 -91 -19 -184 -50 -235 -80 -38
-22 -93 -80 -93 -98 0 -4 35 -4 78 -1 42 4 100 8 127 10 73 6 165 15 205 20
19 3 55 7 80 10 95 12 126 17 165 25 22 5 56 12 75 15 88 14 238 59 292 86 33
17 79 50 102 74 225 231 -25 675 -373 660 -90 -4 -162 -29 -246 -85 -33 -22
-64 -40 -68 -40 -20 0 -157 -60 -337 -148 -201 -97 -288 -138 -305 -142 -5 -1
-27 -11 -49 -22 -21 -11 -70 -30 -110 -43 -222 -74 -340 -70 -420 13 -53 54
-70 116 -71 252 l0 115 55 51 c49 46 102 92 171 148 91 75 348 224 508 294
137 61 438 169 521 187 8 2 68 17 133 34 65 17 183 44 263 61 293 61 472 140
377 167 -35 10 -275 10 -369 1 -199 -20 -411 -67 -507 -112 -28 -14 -80 -30
-114 -36 -80 -14 -117 -27 -228 -82 -80 -39 -158 -84 -473 -276 -181 -111
-304 -158 -350 -133 -20 10 -21 18 -17 109 5 109 14 229 20 252 2 8 7 43 10
76 3 34 10 76 15 93 5 17 9 34 9 36 0 15 25 130 42 190 71 248 186 460 331
607 151 153 314 241 546 293 57 13 111 30 120 38 32 28 137 75 247 110 98 31
320 93 366 102 35 7 175 47 254 72 202 65 274 136 216 213 l-19 24 -79 -18
c-117 -28 -410 -118 -565 -175 -200 -73 -578 -228 -746 -307 -41 -19 -75 -34
-77 -34 -2 0 -32 -13 -67 -29 -150 -70 -182 -81 -191 -72 -16 16 -10 142 12
225 38 144 96 277 323 746 52 107 118 252 147 323 81 199 128 276 231 375 155
151 392 273 735 377 50 15 126 38 170 52 193 58 401 127 409 135 18 15 -22 78
-60 94 -89 37 -300 -17 -594 -153 -132 -61 -281 -127 -350 -155 -69 -28 -171
-60 -176 -55 -1 1 23 45 53 97 30 52 70 122 88 155 59 108 261 459 362 626 53
90 103 173 108 184 14 25 154 254 272 445 166 269 265 424 421 660 211 319
253 385 437 680 259 415 515 787 640 929 13 14 32 37 43 50 12 16 23 21 32 16
16 -10 8 -136 -15 -245 -9 -41 -18 -82 -20 -90 -1 -8 -8 -35 -15 -60 -7 -25
-14 -56 -17 -70 -2 -14 -24 -99 -48 -190 -85 -325 -154 -607 -180 -735 -14
-71 -64 -292 -110 -490 -98 -421 -195 -839 -201 -875 -3 -14 -12 -54 -20 -90
-9 -36 -18 -76 -20 -90 -3 -14 -20 -95 -39 -180 -54 -247 -173 -832 -191 -940
-3 -14 -9 -48 -15 -76 -5 -28 -12 -61 -14 -75 -24 -143 -36 -208 -40 -229 -7
-34 -23 -129 -28 -165 -3 -16 -10 -57 -15 -90 -6 -33 -14 -80 -17 -105 -3 -25
-10 -67 -15 -95 -5 -27 -12 -70 -15 -95 -3 -25 -8 -56 -10 -70 -5 -31 -44
-311 -50 -365 -3 -22 -7 -56 -10 -75 -11 -84 -22 -177 -30 -250 -3 -30 -8 -71
-10 -90 -2 -19 -7 -64 -10 -100 -3 -36 -8 -81 -10 -100 -5 -38 -15 -142 -20
-205 -2 -22 -6 -98 -9 -170 -16 -331 -18 -340 -117 -740 -33 -132 -62 -253
-65 -270 -2 -16 -7 -37 -9 -45 -2 -8 -7 -28 -10 -45 -2 -16 -7 -39 -9 -50 -22
-108 -22 -296 -1 -398 18 -89 55 -191 65 -180 9 9 95 408 114 528 3 17 12 71
21 120 9 50 21 117 26 150 5 33 12 72 14 88 9 51 14 82 25 162 6 44 13 91 15
105 2 14 7 48 10 75 3 28 9 63 12 80 3 16 7 43 9 60 1 16 5 48 8 70 3 22 8 60
11 85 3 25 7 61 10 80 2 19 7 58 10 85 11 92 14 120 25 205 13 107 18 141 25
210 4 30 8 66 10 80 2 14 9 70 15 125 6 55 13 111 15 125 2 14 6 54 10 90 3
36 8 76 10 90 2 14 7 50 10 80 4 30 10 82 15 115 5 33 12 89 15 125 3 36 7 72
10 80 2 8 6 35 9 60 3 25 12 90 20 145 8 55 17 118 20 141 3 22 15 98 26 170
12 71 23 145 26 164 3 19 7 42 9 50 2 8 7 31 10 50 21 132 69 381 85 440 9 36
16 67 26 130 3 19 8 38 10 41 2 5 71 312 90 404 7 37 12 59 73 335 33 151 62
286 65 300 8 40 15 70 20 88 3 9 7 28 10 42 8 47 67 315 76 350 5 19 11 46 14
60 21 104 167 747 193 845 8 33 17 69 19 80 2 11 17 74 33 140 16 66 32 131
35 145 6 34 145 573 191 740 20 74 41 152 46 173 5 20 25 71 44 112 65 142 89
250 65 296 -15 26 -72 25 -130 -4z"/>
<path d="M11273 14509 c-67 -43 -124 -170 -148 -329 -14 -93 -16 -107 -31
-185 -9 -44 -18 -93 -21 -110 -9 -54 -120 -579 -217 -1032 -53 -244 -97 -453
-100 -465 -2 -13 -25 -129 -50 -258 -25 -129 -47 -246 -50 -260 -2 -14 -9 -52
-14 -85 -6 -33 -14 -87 -17 -120 -3 -33 -8 -73 -11 -90 -4 -29 -6 -47 -19
-190 -4 -38 -8 -80 -10 -93 -2 -12 -7 -57 -10 -100 -4 -42 -8 -88 -10 -102 -2
-14 -7 -65 -11 -115 -3 -49 -8 -97 -9 -105 -2 -9 -6 -58 -10 -110 -4 -52 -8
-111 -10 -130 -2 -19 -6 -69 -10 -110 -3 -41 -8 -95 -10 -120 -2 -25 -7 -81
-10 -125 -4 -44 -8 -93 -10 -110 -1 -16 -6 -66 -10 -110 -10 -125 -19 -221
-30 -325 -2 -14 -6 -56 -9 -95 -7 -67 -10 -99 -21 -182 -2 -21 -7 -63 -10 -93
-5 -51 -9 -82 -20 -170 -23 -185 -59 -417 -95 -620 -17 -91 -32 -178 -35 -195
-8 -44 -31 -146 -81 -351 -41 -175 -47 -209 -59 -339 -7 -73 -15 -149 -30
-265 -3 -25 -8 -63 -10 -85 -3 -22 -10 -74 -15 -115 -9 -73 -15 -131 -25 -235
-3 -27 -7 -77 -10 -110 -7 -74 -7 -354 0 -415 7 -62 14 -109 20 -134 3 -12 7
-32 9 -46 17 -93 82 -258 125 -318 14 -21 52 -39 155 -77 75 -27 136 -52 136
-56 0 -3 -93 -5 -207 -5 -262 0 -339 -17 -428 -96 -74 -64 -75 -63 138 -65
244 -3 441 -11 662 -28 33 -2 96 -7 140 -10 44 -3 100 -8 125 -10 25 -3 77 -7
115 -10 39 -3 86 -8 105 -10 19 -2 64 -7 100 -10 36 -3 81 -8 100 -10 19 -2
67 -7 105 -10 39 -4 81 -8 95 -11 14 -2 56 -6 95 -10 38 -3 81 -8 95 -10 14
-2 72 -7 130 -10 202 -11 345 -48 452 -117 243 -157 222 -364 -45 -444 -76
-22 -117 -29 -219 -38 -26 -2 -73 -6 -105 -9 -105 -10 -240 -22 -353 -31 -41
-3 -97 -8 -125 -10 -27 -2 -88 -7 -135 -10 -47 -3 -114 -8 -150 -10 -99 -7
-318 -20 -490 -30 -380 -20 -586 -28 -1315 -50 -606 -18 -1104 -23 -1260 -12
-118 8 -235 15 -380 22 -106 5 -216 13 -265 20 -19 2 -55 7 -80 10 -84 10
-175 28 -265 52 -237 64 -355 172 -355 322 0 94 8 105 97 139 191 73 480 148
678 177 23 3 51 7 64 10 24 4 61 9 166 20 33 4 71 8 85 11 109 18 710 24 1026
11 l172 -7 4 24 c12 63 -38 109 -152 137 -87 22 -500 19 -760 -6 -25 -2 -81
-7 -125 -10 -44 -3 -87 -7 -95 -10 -8 -2 -55 -6 -105 -10 -585 -39 -813 -81
-1035 -188 -161 -78 -308 -224 -367 -365 -26 -62 -35 -141 -37 -329 -5 -345
67 -687 231 -1102 81 -207 133 -318 411 -881 88 -179 173 -353 188 -387 32
-70 48 -76 109 -47 78 37 67 158 -33 379 -34 73 -179 348 -252 476 -64 112
-149 288 -165 340 -9 30 -38 101 -65 159 -176 386 -288 854 -245 1023 27 105
78 119 219 63 74 -30 259 -88 320 -101 11 -3 74 -16 140 -30 153 -33 169 -36
286 -50 30 -4 62 -9 70 -10 8 -2 53 -6 100 -10 47 -4 99 -9 115 -10 177 -18
640 -23 1005 -12 273 9 633 17 915 22 121 2 229 5 241 8 18 5 69 9 234 22 85
6 305 16 460 20 376 10 660 21 790 31 112 8 160 12 315 29 166 19 452 78 605
127 36 11 85 26 108 34 l44 14 -6 -38 c-3 -20 -8 -57 -12 -81 -5 -43 -37 -186
-67 -306 -9 -33 -68 -212 -131 -398 -167 -489 -216 -666 -243 -872 -10 -77
-12 -305 -3 -305 16 0 75 63 103 110 42 73 99 239 122 359 2 13 6 30 9 39 3 9
7 28 10 42 5 28 56 287 61 310 10 47 47 219 51 240 13 71 88 297 117 357 19
37 54 109 79 158 122 243 152 473 88 675 -67 216 -246 368 -509 434 -57 14
-119 26 -137 26 -19 0 -34 4 -34 9 0 5 -35 12 -77 16 -43 3 -94 8 -113 10 -19
2 -69 7 -110 10 -95 7 -188 15 -220 20 -14 2 -61 6 -105 10 -44 3 -96 7 -115
10 -19 2 -60 7 -90 10 -118 13 -265 37 -273 45 -14 12 3 18 78 24 156 14 181
17 205 21 34 6 172 14 332 20 176 6 328 14 408 20 61 5 81 7 190 20 67 8 184
34 230 50 22 8 44 15 48 16 123 28 283 152 340 264 41 82 69 239 48 273 -3 5
-23 59 -45 119 -21 59 -78 216 -126 348 -306 845 -448 1331 -539 1851 -3 18
-24 121 -45 230 -22 110 -58 296 -81 414 -23 118 -44 224 -46 235 -2 11 -11
58 -20 105 -9 47 -18 92 -19 100 -2 8 -13 62 -24 120 -11 58 -23 119 -26 135
-6 32 -8 41 -24 125 -25 136 -31 167 -35 190 -2 14 -12 66 -21 115 -9 50 -18
97 -20 105 -2 13 -49 282 -60 350 -3 14 -7 36 -9 50 -3 14 -8 43 -11 65 -3 22
-10 65 -15 95 -5 30 -12 71 -15 90 -3 19 -7 46 -10 60 -9 47 -14 85 -20 135
-3 28 -10 73 -15 100 -10 54 -15 88 -26 180 -3 33 -8 69 -10 80 -8 41 -14 81
-19 130 -3 28 -7 61 -10 75 -2 14 -7 52 -10 85 -3 33 -8 74 -10 90 -6 40 -32
287 -40 380 -2 17 -6 68 -9 115 -4 47 -9 101 -11 120 -4 31 -8 95 -20 290 -19
326 -27 933 -13 1009 10 52 11 200 3 246 -13 71 -64 104 -112 74z m-64 -946
c1 -93 4 -197 6 -233 1 -36 6 -128 10 -205 3 -78 8 -159 10 -180 1 -22 6 -85
9 -140 4 -55 9 -116 11 -135 2 -19 7 -73 10 -120 4 -47 8 -92 10 -100 2 -8 6
-49 9 -90 4 -41 9 -86 11 -100 2 -14 7 -54 10 -90 4 -36 8 -76 10 -90 2 -14 9
-65 15 -115 13 -109 17 -133 35 -255 8 -52 17 -115 20 -139 3 -23 7 -55 10
-70 2 -14 13 -82 24 -151 12 -69 23 -135 25 -146 2 -12 7 -39 10 -60 8 -51 53
-301 71 -389 8 -38 17 -86 20 -105 3 -19 11 -55 16 -80 6 -24 26 -139 45 -255
44 -266 76 -450 90 -525 2 -14 7 -41 10 -60 3 -19 15 -82 26 -140 10 -58 21
-114 22 -125 2 -11 8 -45 14 -75 6 -30 14 -66 16 -80 2 -14 12 -58 20 -97 9
-40 18 -85 21 -100 3 -16 7 -39 10 -53 3 -14 7 -37 10 -52 25 -136 156 -687
216 -913 23 -82 42 -154 43 -160 4 -16 25 -89 83 -285 95 -321 242 -745 368
-1060 40 -101 37 -220 -7 -305 -50 -96 -212 -190 -373 -219 -16 -3 -39 -8 -50
-10 -18 -3 -64 -10 -155 -21 -57 -7 -210 -14 -450 -20 -219 -5 -386 -13 -425
-20 -65 -11 -137 -16 -435 -28 -115 -5 -247 40 -315 109 -59 59 -114 166 -130
251 -2 16 -9 51 -14 78 -10 50 -7 483 3 583 15 132 17 169 22 347 4 155 10
209 31 295 13 58 26 112 28 120 2 8 20 89 40 180 20 91 39 176 41 190 3 14 16
79 29 146 13 66 26 133 30 150 3 16 19 108 36 204 29 171 35 204 45 265 2 17
6 41 9 55 2 14 7 45 10 70 4 25 8 56 10 70 2 14 7 45 10 70 3 25 8 52 10 60 2
8 7 44 10 80 4 36 8 67 10 70 1 3 6 41 10 85 4 44 8 82 10 85 1 3 6 37 9 75 4
39 9 81 11 95 2 14 9 72 15 130 6 58 13 121 15 140 2 19 7 69 10 110 3 41 8
89 10 105 2 17 6 66 10 110 3 44 8 100 10 125 3 25 7 134 10 242 2 108 7 225
10 260 11 147 16 205 20 238 11 95 15 139 20 185 5 49 51 366 59 415 3 14 12
64 20 113 35 194 48 260 87 447 22 107 42 206 45 220 2 14 13 66 24 115 33
155 62 289 66 315 3 14 10 45 15 70 6 25 12 52 14 60 4 22 18 94 20 100 0 3 4
21 8 40 4 19 10 46 13 60 3 14 7 36 10 50 2 14 13 68 24 120 19 97 23 116 35
185 8 47 15 75 19 75 2 0 4 -75 5 -167z m-421 -7747 c12 -13 -9 -17 -96 -17
-94 0 -117 5 -106 23 7 11 190 5 202 -6z"/>
<path d="M11381 4499 c-350 -44 -662 -429 -602 -741 33 -166 164 -284 374
-338 240 -60 454 -2 627 170 221 222 255 538 78 732 -120 130 -303 198 -477
177z m98 -181 c79 -26 136 -63 195 -124 188 -192 172 -434 -38 -553 -74 -42
-170 -71 -256 -77 -215 -15 -437 137 -454 311 -8 92 60 238 158 340 111 114
255 151 395 103z"/>
<path d="M11380 4143 c-69 -27 -106 -50 -153 -93 -151 -138 -136 -304 34 -389
87 -43 240 12 334 121 l37 43 -4 91 c-4 75 -10 99 -32 140 -38 68 -68 88 -141
91 -33 1 -67 0 -75 -4z m78 -122 c18 -11 19 -71 3 -143 l-12 -56 -51 -12 c-89
-22 -128 -11 -128 34 0 42 79 143 135 174 24 14 36 14 53 3z"/>
<path d="M13150 4206 c-3 -2 -29 -7 -58 -10 -193 -21 -413 -107 -563 -220 -41
-31 -80 -56 -86 -56 -7 0 -13 -5 -13 -11 0 -5 4 -8 8 -5 7 4 160 39 221 51 9
1 36 6 61 11 25 4 47 8 50 9 3 1 30 5 60 9 30 5 64 10 75 12 11 2 47 6 80 9
33 3 78 8 100 11 56 8 298 8 375 0 218 -23 374 -84 478 -186 76 -75 105 -142
168 -385 48 -183 -43 -348 -251 -455 -146 -74 -286 -105 -465 -104 -124 0
-182 15 -223 55 -23 23 -28 35 -23 55 11 41 43 77 118 135 139 106 201 195
202 294 1 80 -34 138 -119 193 -200 132 -532 130 -744 -5 -60 -38 -157 -134
-166 -164 -4 -10 -10 -19 -14 -19 -16 0 -110 -206 -124 -273 -53 -243 30 -479
242 -687 208 -204 498 -344 801 -389 126 -19 770 2 1030 34 19 2 60 7 90 10
47 6 259 43 328 59 44 10 64 18 82 33 20 18 55 32 425 178 371 147 555 238
555 274 0 4 -10 13 -23 18 -19 9 -43 2 -148 -47 -244 -113 -525 -214 -765
-275 -72 -19 -142 -36 -155 -39 -13 -2 -35 -7 -49 -10 -14 -3 -36 -8 -50 -10
-14 -3 -50 -9 -80 -15 -30 -5 -73 -12 -95 -15 -22 -3 -56 -8 -75 -11 -171 -27
-612 -39 -770 -21 -30 4 -77 9 -105 12 -27 3 -63 7 -80 10 -16 3 -43 7 -60 10
-28 4 -153 28 -200 39 -259 55 -302 69 -395 124 -365 219 -438 756 -138 1026
59 53 169 108 248 124 54 12 232 16 260 7 8 -2 27 -7 41 -10 17 -4 40 -26 69
-67 76 -108 82 -182 17 -212 -58 -27 -59 -27 -282 -42 -118 -7 -156 -15 -197
-38 -70 -38 -61 -99 35 -227 138 -185 335 -282 572 -281 50 1 101 3 115 6 14
3 39 8 55 10 54 10 157 46 219 77 388 195 535 599 353 968 -33 67 -59 103
-127 170 -72 72 -101 93 -190 138 -94 47 -215 88 -310 107 -41 8 -384 18 -390
11z"/>
<path d="M10726 3314 c-155 -34 -301 -117 -430 -242 -219 -213 -304 -474 -213
-649 25 -47 92 -110 146 -137 94 -47 178 -66 376 -82 149 -11 206 -4 247 33
27 24 22 89 -13 200 -38 118 -42 190 -13 230 26 36 98 72 160 80 27 3 50 7 52
8 6 6 96 -37 147 -70 214 -137 256 -339 119 -567 -79 -130 -269 -292 -459
-390 -66 -34 -275 -112 -275 -103 0 3 -10 1 -23 -4 -85 -32 -305 -33 -409 -1
-40 13 -107 24 -148 26 -150 5 -196 12 -415 59 -26 6 -183 50 -410 114 -325
93 -437 114 -620 115 -193 1 -298 -19 -455 -91 -49 -22 -78 -45 -120 -92 -57
-66 -110 -138 -110 -152 0 -26 53 -10 270 79 80 32 170 65 200 72 52 13 206
16 267 6 16 -3 48 -8 73 -11 25 -3 72 -11 105 -17 33 -5 74 -12 90 -15 17 -2
163 -38 325 -79 162 -41 302 -77 310 -79 61 -15 201 -45 230 -50 19 -3 60 -10
90 -15 215 -37 497 -35 735 6 385 65 674 210 826 414 23 30 72 118 109 195 96
198 113 294 74 420 -61 196 -295 346 -539 346 -182 0 -317 -81 -379 -227 -17
-41 -20 -71 -21 -176 l0 -127 -30 6 c-191 34 -301 86 -351 165 -122 193 173
523 582 651 176 55 365 54 489 -4 92 -42 269 -166 343 -239 99 -99 168 -185
307 -385 306 -440 410 -555 603 -663 68 -39 170 -77 231 -86 14 -3 44 -7 66
-10 22 -4 160 -7 307 -9 202 -1 270 1 280 11 28 28 -44 55 -487 182 -144 42
-314 97 -345 112 -38 19 -119 86 -184 153 -86 88 -159 182 -323 413 -226 319
-331 440 -469 538 -171 122 -308 157 -574 145 -30 -2 -104 0 -165 3 -81 4
-129 1 -179 -10z"/>
<path d="M5945 3079 c-72 -8 -120 -16 -160 -29 -16 -5 -69 -16 -117 -25 -237
-43 -498 -144 -768 -295 -68 -38 -440 -283 -500 -329 -14 -11 -140 -104 -280
-207 -456 -336 -711 -496 -980 -617 -186 -83 -309 -137 -314 -137 -3 0 -29
-11 -58 -24 -132 -60 -480 -165 -628 -190 -19 -3 -46 -8 -59 -11 -24 -4 -108
-15 -171 -21 -54 -5 -271 -5 -310 0 -19 3 -57 8 -85 12 -251 33 -482 146 -673
332 -57 55 -63 58 -82 45 -25 -18 -50 -65 -50 -96 0 -41 50 -125 112 -186 135
-134 344 -248 558 -306 42 -11 97 -13 236 -10 100 3 196 7 215 10 19 3 55 7
82 10 164 16 414 74 633 148 209 71 353 132 599 253 514 253 610 313 1159 717
581 428 826 572 1163 683 188 62 336 87 533 88 280 3 445 -48 573 -175 193
-192 226 -530 81 -827 -134 -270 -377 -362 -613 -231 -62 35 -147 99 -155 116
-3 7 16 24 42 39 113 66 265 194 329 279 17 22 43 65 59 95 25 47 29 66 29
135 0 92 -18 135 -84 203 -103 106 -313 156 -491 117 -397 -89 -738 -527 -724
-929 9 -236 146 -439 385 -570 215 -117 476 -132 774 -44 146 43 477 192 605
273 22 14 42 25 44 25 3 0 68 38 147 85 78 47 143 85 144 85 2 0 57 33 123 74
240 148 421 246 625 340 43 20 81 36 83 36 3 0 24 8 47 19 155 68 442 153 602
178 17 2 41 6 55 9 89 16 326 22 450 11 141 -12 361 -64 455 -107 302 -138
461 -192 539 -184 62 6 54 36 -30 113 -140 128 -366 246 -574 300 -208 54
-305 66 -530 66 -217 0 -277 -7 -480 -52 -371 -82 -742 -246 -1360 -601 -475
-272 -618 -357 -680 -403 -79 -58 -152 -96 -236 -123 -77 -25 -91 -27 -199
-33 -232 -12 -451 63 -613 209 -140 126 -210 282 -198 438 14 184 77 285 327
517 128 118 242 159 362 127 200 -52 334 -286 225 -393 -56 -55 -144 -59 -338
-17 -18 4 -70 -70 -96 -139 -26 -70 -24 -165 6 -230 44 -95 191 -207 315 -240
17 -5 35 -9 40 -11 124 -35 305 -29 433 16 145 51 266 176 366 378 109 218
103 483 -17 702 -48 88 -63 110 -119 175 -205 237 -501 364 -783 334z"/>
</g>
</svg>
