<?xml version="1.0" standalone="no"?>
<!DOCTYPE svg PUBLIC "-//W3C//DTD SVG 20010904//EN"
 "http://www.w3.org/TR/2001/REC-SVG-20010904/DTD/svg10.dtd">
<svg version="1.0" xmlns="http://www.w3.org/2000/svg"
 width="1001.000000pt" height="1001.000000pt" viewBox="0 0 1001.000000 1001.000000"
 preserveAspectRatio="xMidYMid meet">
<metadata>
Created by potrace 1.11, written by Peter Selinger 2001-2013
</metadata>
<g transform="translate(0.000000,1001.000000) scale(0.100000,-0.100000)"
fill="#000000" stroke="none">
<path d="M0 5005 l0 -5005 5000 0 5000 0 0 5005 0 5005 -5000 0 -5000 0 0
-5005z m8926 3912 c5 -4 9 -7766 5 -7829 -1 -5 -1765 -8 -3921 -8 -2156 0
-3920 3 -3921 8 -1 4 -2 1766 -3 3917 -1 3765 0 3910 17 3915 27 8 7815 5
7823 -3z"/>
<path d="M3488 7601 c-5 -14 -54 -147 -108 -296 -54 -148 -110 -300 -124 -336
-14 -37 -22 -69 -19 -73 4 -3 2 -6 -4 -6 -6 0 -14 -15 -17 -32 -3 -18 -12 -45
-20 -59 -7 -14 -16 -39 -20 -55 -4 -16 -14 -42 -21 -59 -7 -16 -28 -70 -45
-120 -17 -49 -35 -99 -40 -110 -5 -11 -16 -42 -25 -70 -10 -27 -21 -59 -26
-70 -10 -24 -70 -186 -73 -200 -2 -5 -6 -17 -9 -25 -12 -27 -85 -230 -105
-290 -3 -8 -4 -18 -4 -22 1 -5 -3 -8 -10 -8 -6 0 -8 -3 -5 -7 4 -3 2 -12 -4
-20 -6 -7 -8 -13 -5 -13 4 0 2 -9 -4 -20 -6 -11 -28 -68 -49 -127 -40 -112
-93 -257 -156 -428 -20 -55 -40 -111 -45 -125 -5 -14 -18 -50 -30 -80 -12 -30
-28 -77 -37 -105 -8 -27 -18 -54 -22 -60 -4 -5 -13 -28 -20 -50 -7 -22 -37
-105 -66 -185 -30 -80 -74 -202 -99 -272 -25 -70 -52 -144 -60 -165 -19 -50
-26 -73 -24 -76 1 -1 -4 -13 -11 -26 -7 -13 -32 -78 -56 -145 -24 -66 -60
-166 -80 -221 -33 -90 -53 -144 -138 -380 -14 -38 -38 -101 -52 -140 -14 -38
-35 -97 -47 -130 -11 -33 -25 -71 -31 -85 -6 -14 -11 -29 -13 -35 -1 -5 -16
-46 -32 -90 -17 -44 -51 -138 -77 -210 -26 -71 -53 -145 -61 -162 -12 -30 -12
-33 4 -34 9 -1 257 -2 549 -3 l533 -1 19 50 c26 65 148 401 196 535 12 36 30
83 38 105 8 22 27 74 42 115 15 41 30 84 35 95 15 38 49 130 67 185 10 30 22
58 26 61 5 3 8 9 7 13 -1 4 5 26 13 49 8 23 30 83 48 132 17 50 36 101 42 115
6 14 11 27 12 30 1 3 4 12 7 20 4 8 9 24 11 35 3 11 20 56 37 100 17 44 33 87
35 95 2 8 49 139 105 290 56 151 111 302 122 335 11 33 26 74 33 90 14 33 65
173 100 275 12 36 28 79 35 95 20 49 27 67 50 135 12 36 26 74 30 85 5 11 20
54 35 95 15 41 31 84 36 95 5 11 11 29 13 40 3 11 12 38 21 60 10 22 32 81 50
130 18 50 62 173 100 275 111 306 143 395 185 513 22 61 44 121 49 132 5 11
19 49 31 85 13 36 28 79 35 95 7 17 27 71 45 120 17 50 35 99 40 110 4 11 22
61 40 110 17 50 34 97 37 105 4 8 7 17 8 20 1 3 5 12 8 20 4 8 22 58 41 111
l34 96 -550 -1 -550 0 -10 -25z"/>
<path d="M5223 7611 c-3 -9 -9 -25 -13 -36 -5 -11 -32 -85 -60 -165 -28 -80
-55 -154 -60 -165 -5 -11 -23 -60 -40 -110 -17 -49 -35 -99 -40 -110 -12 -26
-80 -215 -85 -235 -2 -8 -15 -43 -29 -78 -13 -34 -25 -64 -25 -65 0 -2 -11
-34 -47 -130 -14 -37 -27 -73 -28 -80 -2 -6 -7 -23 -13 -37 -17 -41 -55 -144
-57 -155 -2 -5 -8 -23 -15 -40 -6 -16 -16 -43 -22 -60 -6 -16 -15 -39 -19 -50
-5 -11 -23 -60 -41 -110 -93 -261 -162 -451 -211 -580 -16 -44 -31 -84 -32
-90 -2 -5 -9 -23 -15 -40 -7 -16 -14 -34 -15 -40 -2 -9 -39 -112 -53 -145 -3
-8 -8 -23 -10 -33 -1 -10 -9 -30 -17 -45 -10 -21 -45 -115 -51 -142 -1 -3 -5
-12 -8 -20 -4 -8 -23 -60 -42 -115 -20 -55 -39 -109 -44 -120 -5 -11 -14 -33
-19 -50 -6 -16 -26 -73 -45 -125 -19 -52 -72 -196 -117 -320 -45 -124 -125
-342 -177 -485 -52 -143 -113 -309 -135 -370 -22 -60 -43 -119 -48 -130 -4
-11 -15 -42 -25 -70 -9 -27 -21 -59 -26 -70 -8 -19 -77 -207 -83 -230 -2 -5
-8 -23 -15 -40 -6 -16 -15 -41 -20 -55 -5 -14 -13 -34 -17 -45 -4 -11 -8 -22
-9 -25 -1 -3 -5 -14 -9 -25 -79 -206 -76 -195 -52 -196 62 -4 1054 -4 1068 -1
11 3 23 21 30 46 14 51 14 48 21 66 21 54 400 1197 400 1208 0 6 3 12 7 12 4
0 7 6 7 13 0 6 89 275 197 597 109 322 199 590 200 595 4 18 137 420 146 440
7 16 71 207 75 225 1 3 4 12 7 20 9 22 120 353 123 365 1 6 5 17 8 25 5 12 65
195 72 220 1 3 5 12 8 20 3 8 20 60 38 115 17 55 37 118 44 140 7 22 30 102
51 178 21 75 41 137 44 137 6 0 30 -74 30 -95 0 -8 4 -23 9 -33 6 -9 24 -66
41 -127 18 -60 46 -153 63 -205 17 -52 32 -99 33 -105 1 -5 48 -145 103 -310
55 -165 117 -349 137 -410 20 -60 40 -119 44 -130 8 -19 61 -179 67 -200 1 -5
18 -57 38 -115 20 -58 38 -112 41 -120 2 -8 33 -100 68 -205 36 -104 65 -191
66 -192 0 -2 2 -8 5 -15 2 -7 63 -191 135 -408 72 -217 134 -402 137 -410 3
-8 7 -19 8 -25 2 -5 31 -91 64 -190 34 -99 63 -184 64 -190 9 -29 19 -62 26
-80 11 -26 51 -145 56 -165 2 -8 4 -15 4 -15 1 0 52 -153 114 -340 l113 -340
542 0 c375 0 542 3 542 11 0 5 -11 38 -24 72 -14 35 -26 66 -27 70 -4 15 -12
40 -39 112 -16 41 -40 107 -54 145 -69 191 -322 888 -343 945 -13 36 -30 83
-37 105 -8 22 -50 140 -95 262 -44 121 -81 223 -81 226 0 2 -8 22 -17 43 -9
22 -18 44 -19 49 -2 10 -59 168 -119 330 -18 50 -45 124 -60 165 -14 41 -31
86 -37 100 -6 14 -20 54 -33 90 -21 62 -158 441 -230 635 -18 50 -63 173 -100
275 -37 102 -82 226 -100 275 -33 89 -90 247 -160 440 -19 55 -42 116 -49 135
-8 19 -35 94 -60 165 -70 195 -97 268 -106 290 -5 11 -12 31 -15 45 -4 14 -13
39 -20 55 -7 17 -23 59 -35 95 -12 36 -27 77 -33 91 l-10 26 -650 -1 c-580 0
-650 -1 -654 -15z"/>
</g>
</svg>
